PathFileType	4	(X/Y/Z)	D:\TRACE\spot_10-12-23\spot_arm_body_motion_1_4-platform.trc
DataRate	CameraRate	NumFrames	NumMarkers	Units	OrigDataRate	OrigDataStartFrame	OrigNumFrames
100.00	100.00	      61	5	mm	100.00	3501	      7000
Frame#	Time	Left_Front			Right_Front			Left_Aft			Right_Aft			Post			
		X1	Y1	Z1	X2	Y2	Z2	X3	Y3	Z3	X4	Y4	Z4	X5	Y5	Z5	

3501	35.000	-820.77588	-2.55070	-655.42383	746.60803	-4.75709	-630.65387	-749.41315	20.03634	483.27612	660.56708	20.92335	583.20087	-18.14374	723.24225	-980.31940	
3502	35.010	-821.58313	-1.97671	-655.13727	745.91449	-4.27978	-630.59454	-750.03601	19.71363	483.32150	659.96191	20.60063	583.27039	-18.64705	723.98407	-979.47809	
3503	35.020	-822.05634	-1.72573	-655.09601	745.19507	-3.84413	-630.48175	-750.66919	19.55440	483.43466	659.21185	20.33017	583.37042	-19.64903	724.54706	-979.27771	
3504	35.030	-822.72449	-1.22736	-655.04321	744.56598	-3.47333	-630.33862	-751.56049	19.31890	483.42221	658.57166	20.05908	583.52435	-20.68727	725.20099	-978.37323	
3505	35.040	-823.60852	-0.59415	-654.98810	743.79480	-3.05887	-630.22589	-752.28619	19.09274	483.42563	657.91913	19.65480	583.57031	-20.86358	725.86536	-977.50287	
3506	35.050	-824.30548	-0.04419	-654.94012	743.25885	-2.68089	-630.14313	-752.74542	18.78482	483.58588	657.19867	19.15582	583.67389	-21.53447	726.54718	-976.81195	
3507	35.060	-824.74371	0.27223	-654.85571	742.71313	-2.23305	-630.01587	-753.39355	18.47729	483.66916	656.64288	18.93343	583.88397	-22.07089	727.15820	-976.36224	
3508	35.070	-825.33563	0.68514	-654.73389	741.99530	-1.77074	-629.89465	-754.16711	18.20893	483.87460	656.23187	18.70287	584.16907	-23.07752	727.87360	-976.22394	
3509	35.080	-825.99774	1.06573	-654.53082	741.43634	-1.34914	-629.80518	-754.67651	17.94256	483.96747	655.53192	18.25577	584.13629	-23.78058	728.58826	-975.90894	
3510	35.090	-826.51904	1.43486	-654.44196	740.82092	-0.78424	-629.77118	-755.24976	17.59118	484.03305	654.81622	17.80848	584.22516	-24.31981	729.21930	-975.54932	
3511	35.100	-827.36395	2.10800	-654.37665	740.18005	-0.20851	-629.70715	-755.64471	17.20843	484.14523	654.24225	17.45425	584.34924	-24.73433	729.95264	-975.12335	
3512	35.110	-827.78430	2.46238	-654.35730	739.68695	0.06861	-629.59857	-756.29413	16.89668	484.23343	653.66162	17.19671	584.42639	-25.47514	730.64349	-974.59003	
3513	35.120	-828.14630	2.75831	-654.25372	739.13348	0.46989	-629.55798	-756.89862	16.49974	484.42654	653.18634	16.79791	584.50031	-25.63326	731.31763	-973.70258	
3514	35.130	-828.76227	3.35163	-654.10455	738.65472	0.94489	-629.46283	-757.25049	16.21031	484.64539	652.66406	16.33580	584.61035	-26.09519	732.07336	-973.00586	
3515	35.140	-829.31927	3.91388	-654.02905	738.12238	1.43204	-629.38721	-757.64215	16.02045	484.78900	652.24261	15.89125	584.71375	-26.62260	732.68933	-972.18243	
3516	35.150	-829.61884	4.28290	-653.91779	737.66467	1.79919	-629.27881	-758.14905	15.71178	484.91077	651.94012	15.63007	584.85504	-26.94164	733.28357	-971.54626	
3517	35.160	-829.94519	4.60947	-653.80884	737.36212	2.15014	-629.23474	-758.54565	15.38640	485.12228	651.43567	15.28137	584.97925	-27.28308	733.98291	-970.82141	
3518	35.170	-830.42053	5.07779	-653.78973	736.97076	2.69913	-629.05853	-759.01483	15.11988	485.20398	651.01569	14.98918	585.03064	-28.12524	734.58813	-970.32489	
3519	35.180	-830.99994	5.71709	-653.64844	736.58923	3.10589	-628.90247	-759.47015	14.87278	485.19885	650.56262	14.54072	585.09302	-28.51489	735.24042	-969.90363	
3520	35.190	-831.30383	6.23752	-653.61267	736.19507	3.58482	-628.79034	-759.81995	14.62235	485.27084	650.21014	14.15393	585.18542	-28.89095	736.11505	-969.14240	
3521	35.200	-831.50037	6.47181	-653.51086	735.95282	4.01642	-628.66357	-760.11993	14.31121	485.36768	649.93793	13.80868	585.25836	-29.37443	736.70355	-968.65869	
3522	35.210	-831.66425	6.77762	-653.41724	735.64380	4.50329	-628.59210	-760.28113	13.96476	485.40201	649.75299	13.50528	585.37750	-29.24770	737.33484	-967.75531	
3523	35.220	-831.86426	7.26462	-653.29150	735.39410	4.98169	-628.53479	-760.40967	13.64097	485.48035	649.51141	13.16281	585.54370	-29.33507	738.05823	-967.24353	
3524	35.230	-832.17706	7.89782	-653.15717	735.26550	5.38278	-628.51001	-760.61084	13.25722	485.60858	649.24225	12.79148	585.67230	-29.56836	738.69867	-966.62152	
3525	35.240	-832.38348	8.46166	-653.04761	735.01538	5.83345	-628.42590	-760.78320	12.90154	485.77756	648.93268	12.36714	585.74432	-30.13507	739.14417	-966.70599	
3526	35.250	-832.55237	8.86264	-652.88989	734.79376	6.27322	-628.31207	-761.03296	12.58599	485.84766	648.73907	11.98762	585.86694	-30.32170	739.87921	-966.17133	
3527	35.260	-832.71869	9.23548	-652.69714	734.65363	6.71015	-628.12567	-761.19427	12.40820	485.89764	648.60681	11.73331	585.98688	-30.59151	740.59369	-965.46954	
3528	35.270	-832.87299	9.61384	-652.56543	734.59711	7.12012	-628.01086	-761.42590	12.19444	485.91113	648.58685	11.32061	586.09027	-30.29189	741.16193	-964.57526	
3529	35.280	-832.98584	10.08212	-652.45673	734.59357	7.47982	-627.93823	-761.57019	11.99690	485.93787	648.57513	10.99783	586.21771	-30.30232	741.87976	-964.10980	
3530	35.290	-832.97382	10.46691	-652.39374	734.39703	7.67013	-627.84851	-761.64673	11.61632	486.14511	648.46301	10.70652	586.32654	-30.33164	742.58612	-963.49774	
3531	35.300	-832.96991	10.80267	-652.34180	734.30048	8.27917	-627.74084	-761.61029	11.27678	486.27887	648.36499	10.44505	586.37073	-30.77106	743.17944	-963.22931	
3532	35.310	-832.90308	11.24927	-652.23035	734.29272	8.79430	-627.61078	-761.59668	10.93727	486.45639	648.30243	9.95722	586.46552	-30.77715	743.81232	-962.61322	
3533	35.320	-832.76044	11.74697	-652.37494	734.37640	9.31345	-627.48987	-761.58679	10.58570	486.54782	648.38239	9.46093	586.59283	-30.94963	744.51746	-962.04395	
3534	35.330	-832.66516	12.05107	-652.31293	734.38287	9.71269	-627.38495	-761.61536	10.31646	486.66907	648.37537	9.14523	586.57489	-30.43821	745.08527	-960.94263	
3535	35.340	-832.78394	12.61506	-652.10913	734.36206	10.15315	-627.33282	-761.64667	10.05391	486.74857	648.31854	8.87684	586.66327	-30.48680	745.85150	-960.06262	
3536	35.350	-832.79962	13.09013	-652.01898	734.36877	10.56863	-627.23041	-761.64368	9.76547	486.87128	648.37842	8.60078	586.90942	-30.97818	746.56219	-960.08582	
3537	35.360	-832.83630	13.60612	-651.89777	734.36816	11.05268	-627.01044	-761.62402	9.46117	486.99231	648.39624	8.25544	587.04486	-30.76979	746.97833	-959.58325	
3538	35.370	-832.95367	14.02754	-651.76935	734.32050	11.48683	-626.90491	-761.58917	9.18692	487.17410	648.36182	7.89740	587.16296	-30.87612	747.60107	-958.95905	
3539	35.380	-833.05414	14.52479	-651.60931	734.33838	11.90254	-626.80829	-761.59119	8.91203	487.28302	648.35767	7.59866	587.23499	-30.64080	748.37958	-957.91144	
3540	35.390	-832.94611	14.84916	-651.47327	734.43420	12.28597	-626.78656	-761.45074	8.60333	487.42487	648.43866	7.21081	587.37817	-30.57291	748.85138	-957.27765	
3541	35.400	-832.64404	15.15130	-651.34064	734.56268	12.74011	-626.75031	-761.23083	8.21914	487.50644	648.60223	6.82284	587.43774	-30.33748	749.42371	-956.86829	
3542	35.410	-832.51093	15.87387	-651.16010	734.66895	13.39358	-626.64838	-761.01520	7.99316	487.53955	648.78314	6.43262	587.52747	-30.29065	750.08734	-956.68744	
3543	35.420	-832.00397	16.34508	-651.25085	734.95770	13.72912	-626.54443	-760.72296	7.80666	487.68875	649.05615	6.18499	587.61987	-30.16433	750.71307	-956.32263	
3544	35.430	-831.90216	16.58818	-651.12866	735.26758	13.79112	-626.48907	-760.51422	7.57088	487.85376	649.35065	5.91009	587.70605	-30.04787	751.21069	-956.05865	
3545	35.440	-831.63495	16.69507	-651.11786	735.46436	14.15032	-626.48621	-760.36438	7.32509	487.87299	649.70667	5.74010	587.79022	-29.27082	751.78845	-954.86694	
3546	35.450	-831.39813	17.17924	-650.93597	735.65674	14.58066	-626.40350	-760.19873	7.00781	487.89603	650.01361	5.19550	587.90295	-29.33950	752.31354	-954.68048	
3547	35.460	-831.17633	17.64846	-650.77368	735.84216	14.88978	-626.28021	-759.91132	6.69110	488.01340	650.20288	5.00016	588.07507	-29.02373	752.78735	-954.13165	
3548	35.470	-830.99176	18.16965	-650.58173	736.13654	15.22141	-626.26215	-759.57904	6.38724	488.13354	650.38007	4.70242	588.15234	-28.89394	753.45837	-953.75226	
3549	35.480	-830.75024	18.59578	-650.55847	736.05676	15.35887	-626.42078	-759.18848	5.97361	488.24545	650.80731	4.21508	588.29285	-28.18140	754.38190	-952.70978	
3550	35.490	-830.48419	19.03559	-650.49768	736.13586	15.85054	-626.51160	-758.74579	5.74698	488.37311	651.12201	3.97355	588.40338	-27.93119	754.91644	-952.28333	
3551	35.500	-830.06946	19.57070	-650.42523	736.69977	16.49382	-626.29956	-758.52417	5.53179	488.42035	651.41357	3.64548	588.41754	-27.71682	755.53198	-952.03503	
3552	35.510	-829.61548	19.86552	-650.28265	737.89581	17.17180	-625.42090	-758.26740	5.30818	488.48697	651.91382	3.19766	588.58319	-27.06494	756.06390	-950.81384	
3553	35.520	-829.10358	20.16268	-650.14471	738.40991	17.65122	-625.28528	-757.88867	5.04083	488.50320	652.37384	2.93980	588.64880	-27.07453	756.61328	-950.69824	
3554	35.530	-828.56116	20.46338	-650.02283	738.80499	18.14889	-625.18628	-757.36176	4.81147	488.70490	652.73615	2.75992	588.72095	-26.72280	757.15552	-950.06262	
3555	35.540	-828.13263	20.86793	-649.97760	739.16168	18.44718	-625.04633	-756.84991	4.51047	488.82401	653.10962	2.44290	588.78516	-26.10091	757.54028	-949.39777	
3556	35.550	-827.77783	21.18439	-649.93207	739.52197	18.60909	-624.94299	-756.51764	4.27326	488.92355	653.42725	2.15550	588.87329	-25.91831	758.02441	-948.94147	
3557	35.560	-827.44946	21.61349	-649.86823	739.98090	18.87342	-624.93463	-756.14917	4.04875	488.86716	653.85223	1.79293	588.99170	-25.19140	758.61505	-948.00769	
3558	35.570	-827.09204	21.93318	-649.69403	740.48895	19.34661	-624.87793	-755.68280	3.84420	488.86786	654.35736	1.52327	589.09760	-24.95098	759.03973	-947.98157	
3559	35.580	-826.67810	22.31827	-649.61133	741.03760	19.78204	-624.76062	-755.12695	3.64229	488.98978	654.91565	1.30840	589.14276	-24.27757	759.63007	-947.52612	
3560	35.590	-826.00305	22.62939	-649.51843	741.49738	20.14206	-624.73523	-754.57660	3.44795	489.07593	655.36279	1.03655	589.18842	-23.61611	760.04633	-946.75616	
3561	35.600	-825.55859	22.89678	-649.49097	741.85242	20.42316	-624.62750	-754.18170	3.14252	489.08514	655.77399	0.74462	589.24261	-23.14046	760.83398	-946.53680	
